<svg xmlns="http://www.w3.org/2000/svg" viewBox="0 0 1480 656" font-family="Segoe UI, Helvetica, Arial, sans-serif">
<defs>
<marker id="ar_c" markerWidth="10" markerHeight="10" refX="8" refY="3" orient="auto" markerUnits="userSpaceOnUse"><path d="M0,0 L8,3 L0,6 Z" fill="#8B98AD"/></marker>
<marker id="ar_cy" markerWidth="10" markerHeight="10" refX="8" refY="3" orient="auto" markerUnits="userSpaceOnUse"><path d="M0,0 L8,3 L0,6 Z" fill="#00D4FF"/></marker>
<marker id="ar_loop" markerWidth="10" markerHeight="10" refX="8" refY="3" orient="auto" markerUnits="userSpaceOnUse"><path d="M0,0 L8,3 L0,6 Z" fill="#5CE1A6"/></marker>
<marker id="ar_map" markerWidth="10" markerHeight="10" refX="8" refY="3" orient="auto" markerUnits="userSpaceOnUse"><path d="M0,0 L8,3 L0,6 Z" fill="#B98CFF"/></marker>
</defs>
<rect width="1480" height="656" fill="#0B0F1A"/>
<text x="40" y="50" fill="#E6EDF3" font-size="30" font-weight="700">Aegis Project</text>
<text x="40" y="76" fill="#00D4FF" font-size="15" font-weight="600">Self-healing cloud security range for AWS</text>
<text x="1440" y="50" fill="#8B98AD" font-size="13" text-anchor="end">Deploy &#8594; Attack &#8594; Detect &#8594; Respond &#8594; Map</text>
<rect x="90" y="104" width="180" height="38" rx="19" fill="#00D4FF" opacity="0.14" stroke="#00D4FF" stroke-width="1.5"/>
<text x="180" y="129" fill="#00D4FF" font-size="15" font-weight="700" text-anchor="middle" letter-spacing="2">DEPLOY</text>
<text x="320" y="130" fill="#8B98AD" font-size="16" text-anchor="middle">&#8594;</text>
<rect x="370" y="104" width="180" height="38" rx="19" fill="#FF5C7A" opacity="0.14" stroke="#FF5C7A" stroke-width="1.5"/>
<text x="460" y="129" fill="#FF5C7A" font-size="15" font-weight="700" text-anchor="middle" letter-spacing="2">ATTACK</text>
<text x="600" y="130" fill="#8B98AD" font-size="16" text-anchor="middle">&#8594;</text>
<rect x="650" y="104" width="180" height="38" rx="19" fill="#FFC857" opacity="0.14" stroke="#FFC857" stroke-width="1.5"/>
<text x="740" y="129" fill="#FFC857" font-size="15" font-weight="700" text-anchor="middle" letter-spacing="2">DETECT</text>
<text x="880" y="130" fill="#8B98AD" font-size="16" text-anchor="middle">&#8594;</text>
<rect x="930" y="104" width="180" height="38" rx="19" fill="#5CE1A6" opacity="0.14" stroke="#5CE1A6" stroke-width="1.5"/>
<text x="1020" y="129" fill="#5CE1A6" font-size="15" font-weight="700" text-anchor="middle" letter-spacing="2">RESPOND</text>
<text x="1160" y="130" fill="#8B98AD" font-size="16" text-anchor="middle">&#8594;</text>
<rect x="1210" y="104" width="180" height="38" rx="19" fill="#B98CFF" opacity="0.14" stroke="#B98CFF" stroke-width="1.5"/>
<text x="1300" y="129" fill="#B98CFF" font-size="15" font-weight="700" text-anchor="middle" letter-spacing="2">MAP</text>
<rect x="40" y="300" width="182" height="92" rx="12" fill="#0E1626" stroke="#26344B" stroke-width="1.4"/>
<rect x="40" y="300" width="182" height="5" rx="2.5" fill="#00D4FF"/>
<text x="131" y="334" fill="#E6EDF3" font-size="14.5" font-weight="700" text-anchor="middle">Vulnerable infra</text>
<text x="131" y="355" fill="#8B98AD" font-size="12" text-anchor="middle">S3 / IAM / EC2</text>
<text x="131" y="371" fill="#8B98AD" font-size="12" text-anchor="middle">Terraform</text>
<rect x="148" y="372" width="66" height="15" rx="7.5" fill="#00D4FF" opacity="0.16"/>
<text x="181" y="383" fill="#00D4FF" font-size="9.5" font-weight="700" text-anchor="middle">scenario</text>
<line x1="222" y1="346" x2="241" y2="346" stroke="#8B98AD" stroke-width="1.8" marker-end="url(#ar_c)"/>
<rect x="243" y="300" width="182" height="92" rx="12" fill="#0E1626" stroke="#26344B" stroke-width="1.4"/>
<rect x="243" y="300" width="182" height="5" rx="2.5" fill="#FF5C7A"/>
<text x="334" y="334" fill="#E6EDF3" font-size="14.5" font-weight="700" text-anchor="middle">Attack</text>
<text x="334" y="355" fill="#8B98AD" font-size="12" text-anchor="middle">Python / boto3</text>
<text x="334" y="371" fill="#8B98AD" font-size="12" text-anchor="middle">scripted exploit</text>
<line x1="425" y1="346" x2="444" y2="346" stroke="#8B98AD" stroke-width="1.8" marker-end="url(#ar_c)"/>
<rect x="446" y="300" width="182" height="92" rx="12" fill="#0E1626" stroke="#26344B" stroke-width="1.4"/>
<rect x="446" y="300" width="182" height="5" rx="2.5" fill="#FFC857"/>
<text x="537" y="334" fill="#E6EDF3" font-size="14.5" font-weight="700" text-anchor="middle">CloudTrail</text>
<text x="537" y="355" fill="#8B98AD" font-size="12" text-anchor="middle">records the</text>
<text x="537" y="371" fill="#8B98AD" font-size="12" text-anchor="middle">AWS API call</text>
<rect x="579" y="372" width="41" height="15" rx="7.5" fill="#FFC857" opacity="0.16"/>
<text x="600" y="383" fill="#FFC857" font-size="9.5" font-weight="700" text-anchor="middle">core</text>
<line x1="628" y1="346" x2="647" y2="346" stroke="#8B98AD" stroke-width="1.8" marker-end="url(#ar_c)"/>
<rect x="649" y="300" width="182" height="92" rx="12" fill="#0E1626" stroke="#26344B" stroke-width="1.4"/>
<rect x="649" y="300" width="182" height="5" rx="2.5" fill="#FFC857"/>
<text x="740" y="334" fill="#E6EDF3" font-size="14.5" font-weight="700" text-anchor="middle">EventBridge</text>
<text x="740" y="355" fill="#8B98AD" font-size="12" text-anchor="middle">rule matches</text>
<text x="740" y="371" fill="#8B98AD" font-size="12" text-anchor="middle">the event</text>
<line x1="831" y1="346" x2="850" y2="346" stroke="#8B98AD" stroke-width="1.8" marker-end="url(#ar_c)"/>
<rect x="852" y="300" width="182" height="92" rx="12" fill="#0E1626" stroke="#26344B" stroke-width="1.4"/>
<rect x="852" y="300" width="182" height="5" rx="2.5" fill="#FFC857"/>
<text x="943" y="334" fill="#E6EDF3" font-size="14.5" font-weight="700" text-anchor="middle">Detection Lambda</text>
<text x="943" y="355" fill="#8B98AD" font-size="12" text-anchor="middle">inspects content,</text>
<text x="943" y="371" fill="#8B98AD" font-size="12" text-anchor="middle">raises finding</text>
<line x1="1034" y1="346" x2="1053" y2="346" stroke="#8B98AD" stroke-width="1.8" marker-end="url(#ar_c)"/>
<rect x="1055" y="300" width="182" height="92" rx="12" fill="#0E1626" stroke="#26344B" stroke-width="1.4"/>
<rect x="1055" y="300" width="182" height="5" rx="2.5" fill="#5CE1A6"/>
<text x="1146" y="334" fill="#E6EDF3" font-size="14.5" font-weight="700" text-anchor="middle">SNS</text>
<text x="1146" y="355" fill="#8B98AD" font-size="12" text-anchor="middle">findings topic</text>
<text x="1146" y="371" fill="#8B98AD" font-size="12" text-anchor="middle">(decouples)</text>
<line x1="1237" y1="346" x2="1256" y2="346" stroke="#8B98AD" stroke-width="1.8" marker-end="url(#ar_c)"/>
<rect x="1258" y="300" width="182" height="92" rx="12" fill="#0E1626" stroke="#26344B" stroke-width="1.4"/>
<rect x="1258" y="300" width="182" height="5" rx="2.5" fill="#5CE1A6"/>
<text x="1349" y="334" fill="#E6EDF3" font-size="14.5" font-weight="700" text-anchor="middle">Remediation Lambda</text>
<text x="1349" y="355" fill="#8B98AD" font-size="12" text-anchor="middle">auto-fix:</text>
<text x="1349" y="371" fill="#8B98AD" font-size="12" text-anchor="middle">lock down / quarantine</text>
<rect x="430" y="270" width="1026" height="150" rx="14" fill="none" stroke="#00D4FF" stroke-width="1.2" stroke-dasharray="6 5" opacity="0.55"/>
<text x="444" y="286" fill="#00D4FF" font-size="12" font-weight="600" opacity="0.9">Event-driven detection &amp; response pipeline</text>
<rect x="40" y="188" width="182" height="46" rx="10" fill="#131C30" stroke="#26344B" stroke-width="1.2"/>
<text x="131" y="207" fill="#E6EDF3" font-size="12.5" font-weight="600" text-anchor="middle">GitHub Actions (CI)</text>
<text x="131" y="224" fill="#8B98AD" font-size="11" text-anchor="middle">Checkov / tfsec IaC scan</text>
<line x1="131" y1="234" x2="131" y2="298" stroke="#8B98AD" stroke-width="1.6" marker-end="url(#ar_c)"/>
<rect x="793" y="180" width="300" height="58" rx="12" fill="#0E1626" stroke="#B98CFF" stroke-width="1.6"/>
<text x="943" y="204" fill="#B98CFF" font-size="13.5" font-weight="700" text-anchor="middle">Finding enriched with compliance</text>
<text x="943" y="224" fill="#E6EDF3" font-size="13" font-weight="600" text-anchor="middle">ENS &#183; NIS2 &#183; CIS AWS</text>
<line x1="943" y1="298" x2="943" y2="240" stroke="#B98CFF" stroke-width="1.6" marker-end="url(#ar_map)"/>
<path d="M 1349 392 L 1349 438 L 131 438 L 131 394" fill="none" stroke="#5CE1A6" stroke-width="2" marker-end="url(#ar_loop)"/>
<rect x="505" y="423" width="470" height="30" rx="15" fill="#0B0F1A"/>
<text x="740" y="443" fill="#5CE1A6" font-size="13" font-weight="600" text-anchor="middle">self-healing loop &#8212; resource returns to a safe state</text>
<text x="40" y="492" fill="#8B98AD" font-size="12.5" font-weight="600">SCENARIOS (same pipeline, different vuln):</text>
<rect x="40" y="506" width="453" height="52" rx="10" fill="#0E1626" stroke="#26344B" stroke-width="1.2"/>
<rect x="40" y="506" width="5" height="52" rx="2.5" fill="#00D4FF"/>
<text x="58" y="528" fill="#E6EDF3" font-size="13.5" font-weight="700">01 · Public S3 bucket</text>
<text x="58" y="546" fill="#8B98AD" font-size="11.5">PUBLIC_S3_BUCKET → block public access</text>
<rect x="513" y="506" width="453" height="52" rx="10" fill="#0E1626" stroke="#26344B" stroke-width="1.2"/>
<rect x="513" y="506" width="5" height="52" rx="2.5" fill="#FFC857"/>
<text x="531" y="528" fill="#E6EDF3" font-size="13.5" font-weight="700">02 · Over-privileged IAM</text>
<text x="531" y="546" fill="#8B98AD" font-size="11.5">PRIVILEGED_IAM → reversible quarantine</text>
<rect x="987" y="506" width="453" height="52" rx="10" fill="#0E1626" stroke="#26344B" stroke-width="1.2"/>
<rect x="987" y="506" width="5" height="52" rx="2.5" fill="#5CE1A6"/>
<text x="1005" y="528" fill="#E6EDF3" font-size="13.5" font-weight="700">03 · Exposed SSH (port 22)</text>
<text x="1005" y="546" fill="#8B98AD" font-size="11.5">EXPOSED_SSH → revoke 0.0.0.0/0 ingress</text>
<text x="40" y="592" fill="#8B98AD" font-size="11.5">Regions: regional scenarios in eu-west-1 · IAM is global, so its CloudTrail events route through us-east-1 (where the rule + Lambdas live).</text>
<text x="40" y="610" fill="#8B98AD" font-size="11.5">Shared core (always-on): CloudTrail multi-region trail · SNS alerts · S3 log bucket · CloudWatch. Scenario infra is deliberately vulnerable — sandbox account only, destroyed after each session.</text>
</svg>